<mxfile host="Electron" modified="2024-01-25T08:04:03.410Z" agent="Mozilla/5.0 (Macintosh; Intel Mac OS X 10_15_7) AppleWebKit/537.36 (KHTML, like Gecko) draw.io/22.1.21 Chrome/120.0.6099.109 Electron/28.1.0 Safari/537.36" etag="CLl8LYAQL6SgjvJlQxHR" version="22.1.21" type="device">
  <diagram name="シーケンス図" id="dk06Ptmn3kVa0HeboyyS">
    <mxGraphModel dx="1714" dy="1268" grid="1" gridSize="10" guides="1" tooltips="1" connect="1" arrows="1" fold="1" page="1" pageScale="1" pageWidth="827" pageHeight="1169" math="0" shadow="0">
      <root>
        <mxCell id="eN2UzeV752Q1RDpLwJ4--0" />
        <mxCell id="eN2UzeV752Q1RDpLwJ4--1" parent="eN2UzeV752Q1RDpLwJ4--0" />
        <mxCell id="NqFTnNrAKlqA8YF0Ccll-54" value="EventBridge" style="shape=umlLifeline;perimeter=lifelinePerimeter;whiteSpace=wrap;html=1;container=0;dropTarget=0;collapsible=0;recursiveResize=0;outlineConnect=0;portConstraint=eastwest;newEdgeStyle={&quot;edgeStyle&quot;:&quot;elbowEdgeStyle&quot;,&quot;elbow&quot;:&quot;vertical&quot;,&quot;curved&quot;:0,&quot;rounded&quot;:0};" vertex="1" parent="eN2UzeV752Q1RDpLwJ4--1">
          <mxGeometry x="40" y="40" width="100" height="1080" as="geometry" />
        </mxCell>
        <mxCell id="NqFTnNrAKlqA8YF0Ccll-55" value="" style="html=1;points=[];perimeter=orthogonalPerimeter;outlineConnect=0;targetShapes=umlLifeline;portConstraint=eastwest;newEdgeStyle={&quot;edgeStyle&quot;:&quot;elbowEdgeStyle&quot;,&quot;elbow&quot;:&quot;vertical&quot;,&quot;curved&quot;:0,&quot;rounded&quot;:0};" vertex="1" parent="NqFTnNrAKlqA8YF0Ccll-54">
          <mxGeometry x="45" y="70" width="10" height="190" as="geometry" />
        </mxCell>
        <mxCell id="NqFTnNrAKlqA8YF0Ccll-58" value="Lambda" style="shape=umlLifeline;perimeter=lifelinePerimeter;whiteSpace=wrap;html=1;container=0;dropTarget=0;collapsible=0;recursiveResize=0;outlineConnect=0;portConstraint=eastwest;newEdgeStyle={&quot;edgeStyle&quot;:&quot;elbowEdgeStyle&quot;,&quot;elbow&quot;:&quot;vertical&quot;,&quot;curved&quot;:0,&quot;rounded&quot;:0};" vertex="1" parent="eN2UzeV752Q1RDpLwJ4--1">
          <mxGeometry x="220" y="40" width="100" height="1080" as="geometry" />
        </mxCell>
        <mxCell id="NqFTnNrAKlqA8YF0Ccll-59" value="" style="html=1;points=[];perimeter=orthogonalPerimeter;outlineConnect=0;targetShapes=umlLifeline;portConstraint=eastwest;newEdgeStyle={&quot;edgeStyle&quot;:&quot;elbowEdgeStyle&quot;,&quot;elbow&quot;:&quot;vertical&quot;,&quot;curved&quot;:0,&quot;rounded&quot;:0};" vertex="1" parent="NqFTnNrAKlqA8YF0Ccll-58">
          <mxGeometry x="45" y="80" width="10" height="920" as="geometry" />
        </mxCell>
        <mxCell id="NqFTnNrAKlqA8YF0Ccll-60" value="GetItem&lt;br&gt;UserFavoriteChannels" style="html=1;verticalAlign=bottom;endArrow=block;edgeStyle=elbowEdgeStyle;elbow=vertical;curved=0;rounded=0;" edge="1" parent="eN2UzeV752Q1RDpLwJ4--1">
          <mxGeometry relative="1" as="geometry">
            <mxPoint x="275" y="180" as="sourcePoint" />
            <Array as="points">
              <mxPoint x="360" y="180" />
            </Array>
            <mxPoint x="445" y="180" as="targetPoint" />
          </mxGeometry>
        </mxCell>
        <mxCell id="NqFTnNrAKlqA8YF0Ccll-62" value="" style="html=1;verticalAlign=bottom;endArrow=block;edgeStyle=elbowEdgeStyle;elbow=vertical;curved=0;rounded=0;" edge="1" parent="eN2UzeV752Q1RDpLwJ4--1">
          <mxGeometry relative="1" as="geometry">
            <mxPoint x="445" y="210.0000000000001" as="sourcePoint" />
            <Array as="points">
              <mxPoint x="370" y="210" />
            </Array>
            <mxPoint x="280" y="210.0000000000001" as="targetPoint" />
          </mxGeometry>
        </mxCell>
        <mxCell id="NqFTnNrAKlqA8YF0Ccll-63" value="invoke" style="html=1;verticalAlign=bottom;endArrow=open;dashed=1;endSize=8;edgeStyle=elbowEdgeStyle;elbow=vertical;curved=0;rounded=0;" edge="1" parent="eN2UzeV752Q1RDpLwJ4--1">
          <mxGeometry relative="1" as="geometry">
            <mxPoint x="265" y="140.0000000000001" as="targetPoint" />
            <Array as="points">
              <mxPoint x="180" y="140" />
            </Array>
            <mxPoint x="100" y="140.0000000000001" as="sourcePoint" />
          </mxGeometry>
        </mxCell>
        <mxCell id="NqFTnNrAKlqA8YF0Ccll-64" value="DynamoDB" style="shape=umlLifeline;perimeter=lifelinePerimeter;whiteSpace=wrap;html=1;container=0;dropTarget=0;collapsible=0;recursiveResize=0;outlineConnect=0;portConstraint=eastwest;newEdgeStyle={&quot;edgeStyle&quot;:&quot;elbowEdgeStyle&quot;,&quot;elbow&quot;:&quot;vertical&quot;,&quot;curved&quot;:0,&quot;rounded&quot;:0};" vertex="1" parent="eN2UzeV752Q1RDpLwJ4--1">
          <mxGeometry x="400" y="40" width="100" height="1080" as="geometry" />
        </mxCell>
        <mxCell id="NqFTnNrAKlqA8YF0Ccll-65" value="" style="html=1;points=[];perimeter=orthogonalPerimeter;outlineConnect=0;targetShapes=umlLifeline;portConstraint=eastwest;newEdgeStyle={&quot;edgeStyle&quot;:&quot;elbowEdgeStyle&quot;,&quot;elbow&quot;:&quot;vertical&quot;,&quot;curved&quot;:0,&quot;rounded&quot;:0};" vertex="1" parent="NqFTnNrAKlqA8YF0Ccll-64">
          <mxGeometry x="45" y="120" width="10" height="70" as="geometry" />
        </mxCell>
        <mxCell id="NqFTnNrAKlqA8YF0Ccll-74" value="GetItem&lt;br&gt;NewestMovies" style="html=1;verticalAlign=bottom;endArrow=block;edgeStyle=elbowEdgeStyle;elbow=vertical;curved=0;rounded=0;" edge="1" parent="NqFTnNrAKlqA8YF0Ccll-64">
          <mxGeometry relative="1" as="geometry">
            <mxPoint x="-125" y="450" as="sourcePoint" />
            <Array as="points">
              <mxPoint x="-40" y="450" />
            </Array>
            <mxPoint x="45" y="450" as="targetPoint" />
          </mxGeometry>
        </mxCell>
        <mxCell id="NqFTnNrAKlqA8YF0Ccll-75" value="" style="html=1;verticalAlign=bottom;endArrow=block;edgeStyle=elbowEdgeStyle;elbow=vertical;curved=0;rounded=0;" edge="1" parent="NqFTnNrAKlqA8YF0Ccll-64">
          <mxGeometry relative="1" as="geometry">
            <mxPoint x="45" y="480.0000000000001" as="sourcePoint" />
            <Array as="points">
              <mxPoint x="-30" y="480" />
            </Array>
            <mxPoint x="-120" y="480.0000000000001" as="targetPoint" />
          </mxGeometry>
        </mxCell>
        <mxCell id="NqFTnNrAKlqA8YF0Ccll-76" value="" style="html=1;points=[];perimeter=orthogonalPerimeter;outlineConnect=0;targetShapes=umlLifeline;portConstraint=eastwest;newEdgeStyle={&quot;edgeStyle&quot;:&quot;elbowEdgeStyle&quot;,&quot;elbow&quot;:&quot;vertical&quot;,&quot;curved&quot;:0,&quot;rounded&quot;:0};" vertex="1" parent="NqFTnNrAKlqA8YF0Ccll-64">
          <mxGeometry x="45" y="430" width="10" height="70" as="geometry" />
        </mxCell>
        <mxCell id="NqFTnNrAKlqA8YF0Ccll-90" value="PutItem&lt;br&gt;NewestMovies" style="html=1;verticalAlign=bottom;endArrow=block;edgeStyle=elbowEdgeStyle;elbow=vertical;curved=0;rounded=0;" edge="1" parent="NqFTnNrAKlqA8YF0Ccll-64">
          <mxGeometry relative="1" as="geometry">
            <mxPoint x="-125" y="740" as="sourcePoint" />
            <Array as="points">
              <mxPoint x="-40" y="740" />
            </Array>
            <mxPoint x="45" y="740" as="targetPoint" />
          </mxGeometry>
        </mxCell>
        <mxCell id="NqFTnNrAKlqA8YF0Ccll-91" value="" style="html=1;verticalAlign=bottom;endArrow=block;edgeStyle=elbowEdgeStyle;elbow=vertical;curved=0;rounded=0;" edge="1" parent="NqFTnNrAKlqA8YF0Ccll-64">
          <mxGeometry relative="1" as="geometry">
            <mxPoint x="45" y="770.0000000000001" as="sourcePoint" />
            <Array as="points">
              <mxPoint x="-30" y="770" />
            </Array>
            <mxPoint x="-120" y="770.0000000000001" as="targetPoint" />
          </mxGeometry>
        </mxCell>
        <mxCell id="NqFTnNrAKlqA8YF0Ccll-92" value="" style="html=1;points=[];perimeter=orthogonalPerimeter;outlineConnect=0;targetShapes=umlLifeline;portConstraint=eastwest;newEdgeStyle={&quot;edgeStyle&quot;:&quot;elbowEdgeStyle&quot;,&quot;elbow&quot;:&quot;vertical&quot;,&quot;curved&quot;:0,&quot;rounded&quot;:0};" vertex="1" parent="NqFTnNrAKlqA8YF0Ccll-64">
          <mxGeometry x="45" y="720" width="10" height="70" as="geometry" />
        </mxCell>
        <mxCell id="NqFTnNrAKlqA8YF0Ccll-66" value="YouTubeAPI" style="shape=umlLifeline;perimeter=lifelinePerimeter;whiteSpace=wrap;html=1;container=0;dropTarget=0;collapsible=0;recursiveResize=0;outlineConnect=0;portConstraint=eastwest;newEdgeStyle={&quot;edgeStyle&quot;:&quot;elbowEdgeStyle&quot;,&quot;elbow&quot;:&quot;vertical&quot;,&quot;curved&quot;:0,&quot;rounded&quot;:0};" vertex="1" parent="eN2UzeV752Q1RDpLwJ4--1">
          <mxGeometry x="580" y="40" width="100" height="1080" as="geometry" />
        </mxCell>
        <mxCell id="NqFTnNrAKlqA8YF0Ccll-67" value="" style="html=1;points=[];perimeter=orthogonalPerimeter;outlineConnect=0;targetShapes=umlLifeline;portConstraint=eastwest;newEdgeStyle={&quot;edgeStyle&quot;:&quot;elbowEdgeStyle&quot;,&quot;elbow&quot;:&quot;vertical&quot;,&quot;curved&quot;:0,&quot;rounded&quot;:0};" vertex="1" parent="NqFTnNrAKlqA8YF0Ccll-66">
          <mxGeometry x="45" y="330" width="10" height="70" as="geometry" />
        </mxCell>
        <mxCell id="NqFTnNrAKlqA8YF0Ccll-83" value="Post" style="html=1;verticalAlign=bottom;endArrow=block;edgeStyle=elbowEdgeStyle;elbow=vertical;curved=0;rounded=0;" edge="1" parent="NqFTnNrAKlqA8YF0Ccll-66">
          <mxGeometry x="0.0023" relative="1" as="geometry">
            <mxPoint x="-305" y="835" as="sourcePoint" />
            <Array as="points">
              <mxPoint x="-220" y="835" />
            </Array>
            <mxPoint x="200" y="835" as="targetPoint" />
            <mxPoint as="offset" />
          </mxGeometry>
        </mxCell>
        <mxCell id="NqFTnNrAKlqA8YF0Ccll-84" value="" style="html=1;verticalAlign=bottom;endArrow=block;edgeStyle=elbowEdgeStyle;elbow=vertical;curved=0;rounded=0;" edge="1" parent="NqFTnNrAKlqA8YF0Ccll-66">
          <mxGeometry relative="1" as="geometry">
            <mxPoint x="190" y="865" as="sourcePoint" />
            <Array as="points">
              <mxPoint x="-210" y="865" />
            </Array>
            <mxPoint x="-300" y="865.0000000000001" as="targetPoint" />
          </mxGeometry>
        </mxCell>
        <mxCell id="NqFTnNrAKlqA8YF0Ccll-68" value="LINE &lt;br&gt;messaging API" style="shape=umlLifeline;perimeter=lifelinePerimeter;whiteSpace=wrap;html=1;container=0;dropTarget=0;collapsible=0;recursiveResize=0;outlineConnect=0;portConstraint=eastwest;newEdgeStyle={&quot;edgeStyle&quot;:&quot;elbowEdgeStyle&quot;,&quot;elbow&quot;:&quot;vertical&quot;,&quot;curved&quot;:0,&quot;rounded&quot;:0};" vertex="1" parent="eN2UzeV752Q1RDpLwJ4--1">
          <mxGeometry x="740" y="40" width="100" height="1080" as="geometry" />
        </mxCell>
        <mxCell id="NqFTnNrAKlqA8YF0Ccll-69" value="" style="html=1;points=[];perimeter=orthogonalPerimeter;outlineConnect=0;targetShapes=umlLifeline;portConstraint=eastwest;newEdgeStyle={&quot;edgeStyle&quot;:&quot;elbowEdgeStyle&quot;,&quot;elbow&quot;:&quot;vertical&quot;,&quot;curved&quot;:0,&quot;rounded&quot;:0};" vertex="1" parent="NqFTnNrAKlqA8YF0Ccll-68">
          <mxGeometry x="45" y="815" width="10" height="90" as="geometry" />
        </mxCell>
        <mxCell id="NqFTnNrAKlqA8YF0Ccll-70" value="&lt;font color=&quot;#ffffff&quot;&gt;Opt&lt;/font&gt;" style="shape=umlFrame;whiteSpace=wrap;html=1;pointerEvents=0;recursiveResize=0;container=1;collapsible=0;width=160;fillColor=#CC99FF;strokeColor=#CC99FF;align=left;height=20;" vertex="1" parent="eN2UzeV752Q1RDpLwJ4--1">
          <mxGeometry x="250" y="240" width="240" height="100" as="geometry" />
        </mxCell>
        <mxCell id="NqFTnNrAKlqA8YF0Ccll-79" value="[ レコードが存在しない ]" style="text;html=1;strokeColor=none;fillColor=none;align=center;verticalAlign=middle;whiteSpace=wrap;rounded=0;" vertex="1" parent="NqFTnNrAKlqA8YF0Ccll-70">
          <mxGeometry x="65" y="20" width="145" height="30" as="geometry" />
        </mxCell>
        <mxCell id="NqFTnNrAKlqA8YF0Ccll-71" value="正常終了" style="endArrow=classic;html=1;rounded=0;" edge="1" parent="eN2UzeV752Q1RDpLwJ4--1">
          <mxGeometry width="50" height="50" relative="1" as="geometry">
            <mxPoint x="280" y="280" as="sourcePoint" />
            <mxPoint x="280" y="320" as="targetPoint" />
            <Array as="points">
              <mxPoint x="310" y="280" />
              <mxPoint x="310" y="320" />
            </Array>
          </mxGeometry>
        </mxCell>
        <mxCell id="NqFTnNrAKlqA8YF0Ccll-72" value="Get" style="html=1;verticalAlign=bottom;endArrow=block;edgeStyle=elbowEdgeStyle;elbow=vertical;curved=0;rounded=0;" edge="1" parent="eN2UzeV752Q1RDpLwJ4--1">
          <mxGeometry x="0.0023" relative="1" as="geometry">
            <mxPoint x="275" y="390" as="sourcePoint" />
            <Array as="points">
              <mxPoint x="360" y="390" />
            </Array>
            <mxPoint x="620" y="390" as="targetPoint" />
            <mxPoint as="offset" />
          </mxGeometry>
        </mxCell>
        <mxCell id="NqFTnNrAKlqA8YF0Ccll-73" value="" style="html=1;verticalAlign=bottom;endArrow=block;edgeStyle=elbowEdgeStyle;elbow=vertical;curved=0;rounded=0;" edge="1" parent="eN2UzeV752Q1RDpLwJ4--1">
          <mxGeometry relative="1" as="geometry">
            <mxPoint x="620" y="420" as="sourcePoint" />
            <Array as="points">
              <mxPoint x="370" y="420" />
            </Array>
            <mxPoint x="280" y="420.0000000000001" as="targetPoint" />
          </mxGeometry>
        </mxCell>
        <mxCell id="NqFTnNrAKlqA8YF0Ccll-77" value="&lt;font color=&quot;#ffffff&quot;&gt;Opt&lt;/font&gt;" style="shape=umlFrame;whiteSpace=wrap;html=1;pointerEvents=0;recursiveResize=0;container=1;collapsible=0;width=160;fillColor=#CC99FF;strokeColor=#CC99FF;align=left;height=20;" vertex="1" parent="eN2UzeV752Q1RDpLwJ4--1">
          <mxGeometry x="250" y="560" width="240" height="150" as="geometry" />
        </mxCell>
        <mxCell id="NqFTnNrAKlqA8YF0Ccll-78" value="[ レコードが存在する ]" style="text;html=1;strokeColor=none;fillColor=none;align=center;verticalAlign=middle;whiteSpace=wrap;rounded=0;" vertex="1" parent="NqFTnNrAKlqA8YF0Ccll-77">
          <mxGeometry x="52.5" y="25" width="135" height="30" as="geometry" />
        </mxCell>
        <mxCell id="NqFTnNrAKlqA8YF0Ccll-81" value="正常終了" style="endArrow=classic;html=1;rounded=0;" edge="1" parent="NqFTnNrAKlqA8YF0Ccll-77">
          <mxGeometry width="50" height="50" relative="1" as="geometry">
            <mxPoint x="30" y="80" as="sourcePoint" />
            <mxPoint x="30" y="120" as="targetPoint" />
            <Array as="points">
              <mxPoint x="60" y="80" />
              <mxPoint x="60" y="120" />
            </Array>
          </mxGeometry>
        </mxCell>
        <mxCell id="NqFTnNrAKlqA8YF0Ccll-85" value="正常終了" style="endArrow=classic;html=1;rounded=0;" edge="1" parent="eN2UzeV752Q1RDpLwJ4--1">
          <mxGeometry width="50" height="50" relative="1" as="geometry">
            <mxPoint x="280" y="960" as="sourcePoint" />
            <mxPoint x="280" y="1000" as="targetPoint" />
            <Array as="points">
              <mxPoint x="310" y="960" />
              <mxPoint x="310" y="1000" />
            </Array>
          </mxGeometry>
        </mxCell>
      </root>
    </mxGraphModel>
  </diagram>
</mxfile>
